Coordinates
version=1
nRows=9
nColumns=24
inDegrees=yes

Units are S.I. units (second, meters, Newtons, ...)
Angles are in degrees.

endheader
time	pelvis_tilt	pelvis_list	pelvis_rotation	pelvis_tx	pelvis_ty	pelvis_tz	hip_flexion_r	hip_adduction_r	hip_rotation_r	knee_angle_r	ankle_angle_r	subtalar_angle_r	mtp_angle_r	hip_flexion_l	hip_adduction_l	hip_rotation_l	knee_angle_l	ankle_angle_l	subtalar_angle_l	mtp_angle_l	lumbar_extension	lumbar_bending	lumbar_rotation
      0.65000000	      0.16413225	      9.49431366	     -2.98704757	     -0.76817255	      1.05869088	      0.32608140	     24.55823067	     -4.76538921	    -11.56324509	      1.38212454	      5.73668260	      1.97903756	      0.06477347	    -19.62109651	     14.65677410	     -0.78765995	     -0.27205994	     -0.18195794	     -2.98470285	     -0.08377922	      5.84241474	     -6.69516140	      0.78176936
      0.65416667	      0.17304292	      9.46061268	     -2.94174109	     -0.76231526	      1.05855319	      0.32614805	     24.46176703	     -4.73886617	    -11.41914785	      1.01695066	      5.76331899	      1.95712350	      0.06769749	    -19.78486916	     14.59478518	     -0.69639856	     -0.61370447	     -0.24456794	     -3.00851041	     -0.08749759	      5.90018760	     -6.61557426	      0.74937351
      0.65833333	      0.22978900	      9.34307410	     -2.93315577	     -0.75621117	      1.05850847	      0.32626669	     24.24197116	     -4.61803724	    -11.05382085	      0.72277820	      5.96622390	      1.70586918	      0.07738846	    -20.04846977	     14.45083699	     -0.46883220	     -0.85493946	     -0.55576891	     -3.13686553	     -0.09952327	      5.88744424	     -6.41665520	      0.61115484
      0.66250000	      0.36460081	      9.25212992	     -2.93443495	     -0.75029509	      1.05857191	      0.32645013	     23.94978878	     -4.52584569	    -10.65179804	      0.42888948	      5.92320839	      1.12387745	      0.08824173	    -20.34014080	     14.33792959	     -0.43470829	     -1.17078033	     -0.96507908	     -3.45622387	     -0.10713240	      5.75718318	     -6.29785055	      0.42077724
      0.66666667	      0.35531516	      9.21247260	     -2.86696973	     -0.74432248	      1.05847426	      0.32653530	     23.83359958	     -4.50234375	    -10.48578720	      0.07622468	      5.87530738	      1.09325946	      0.09052965	    -20.45777622	     14.25801794	     -0.36861254	     -1.56892181	     -1.02237953	     -3.46694593	     -0.10518924	      5.82360674	     -6.24230992	      0.40755742
      0.67083333	      0.38847738	      9.07977812	     -2.83082382	     -0.73809728	      1.05848642	      0.32669153	     23.58498777	     -4.37349236	    -10.06502892	     -0.15858525	      5.73738378	      0.75203281	      0.09807970	    -20.66338659	     14.08283597	     -0.19687238	     -1.86694659	     -1.39954191	     -3.50643365	     -0.09326646	      5.86711666	     -6.03480948	      0.30859290
      0.67500000	      0.38939101	      9.03797760	     -2.75564594	     -0.73211490	      1.05845186	      0.32679262	     23.43843771	     -4.35366334	     -9.92302753	     -0.49902892	      5.66398635	      0.66871382	      0.10013127	    -20.75709178	     13.99599500	     -0.20819764	     -2.31583628	     -1.49554543	     -3.55156461	     -0.08857429	      5.92232956	     -5.97117724	      0.28935571
      0.67916667	      0.43978088	      8.83485778	     -2.72752113	     -0.72566315	      1.05855230	      0.32702744	     23.11101831	     -4.14586739	     -9.50383462	     -0.63227049	      5.26694202	      0.16622046	      0.10747309	    -20.97159496	     13.74297645	     -0.16675736	     -2.63070876	     -2.08588781	     -3.62114675	     -0.05921053	      5.94768445	     -5.70557559	      0.15710107
      0.68333333	      0.60077939	      8.71942066	     -2.76331834	     -0.71966796	      1.05874563	      0.32734362	     22.74677878	     -4.01734759	     -9.11668556	     -0.85062045	      4.79799590	     -0.63480142	      0.13036525	    -21.22166818	     13.60816503	     -0.28172471	     -3.05194300	     -2.43012570	     -3.76750229	      0.03849303	      5.81695775	     -5.54877905	      0.00242577
